<?xml version="1.0" encoding="UTF-8"?><svg id="a" xmlns="http://www.w3.org/2000/svg" width="2.94in" height="3.65in" viewBox="0 0 212 263"><defs><style>.b{fill:#ed1e79;}.c{fill:#fbb03b;}.d{fill:#9e005d;}.e{fill:#2c0a3a;}</style></defs><g><polygon class="c" points="114.89 193.98 115.41 200.13 114.89 210.41 114.89 214.43 141.49 214.61 141.2 207.31 141.49 197.71 141.49 192.24 114.89 193.98"/><path class="e" d="M142.17,215.27l-27.93-.19v-4.67l.52-10.31-.58-6.72,27.96-1.83v6.17l-.29,9.62,.32,7.94Zm-26.63-1.49l25.27,.17-.26-6.62,.29-9.65v-4.75l-25.24,1.65,.46,5.49-.52,10.37v3.34Z"/></g><g><polygon class="c" points="97.75 193.98 97.22 200.13 97.75 210.41 97.75 214.43 71.15 214.61 71.44 207.31 71.15 197.71 71.15 192.24 97.75 193.98"/><path class="e" d="M70.47,215.27l.32-7.98-.29-9.55v-6.19l27.96,1.83-.59,6.81,.53,10.19v4.7l-27.93,.19Zm1.33-22.33v4.77l.29,9.58-.26,6.66,25.27-.17v-3.37l-.53-10.25,.47-5.57-25.24-1.65Z"/></g><g><path class="d" d="M144.75,228.26l-8.86-.18-14.28-.2c-.87-.06-1.75,.2-2.61,.33l-8.03,.06c-1.04,0-1.85-2.23-1.85-3.27l-.03-4.97,.03-3.26c0-1.04,.81-2.89,1.85-2.89h8.86l12.54,.3c.08,0,.18,0,.29-.04,.71-.18,1.43-.29,2.15-.28l9.92,.02c1.04,0,1.88,.84,1.88,1.88v4.62l-.44,3.59c.02,1.02-.38,4.29-1.42,4.29Z"/><path class="e" d="M110.97,228.92c-1.63,0-2.51-2.78-2.51-3.92l-.03-4.97,.03-3.27c0-1.24,.95-3.54,2.5-3.54h8.86l12.56,.3,.11-.02c.84-.21,1.59-.31,2.32-.3l9.91,.02c1.4,0,2.53,1.14,2.53,2.53v4.62l-.45,3.67c.02,.42-.16,3.43-1.17,4.46-.33,.33-.67,.4-.9,.4h-.01l-8.86-.18-14.27-.2c-.58-.04-1.14,.07-1.74,.19-.26,.05-.51,.1-.76,.14l-8.12,.07Zm8.84-14.39h-8.84c-.48,0-1.2,1.34-1.2,2.24l-.03,3.27,.03,4.96c0,1.03,.8,2.62,1.2,2.62l8.03-.06c.14-.03,.38-.07,.62-.12,.66-.12,1.33-.25,2.04-.21l14.24,.2,8.81,.18c.41-.31,.83-2.42,.81-3.62l.45-3.68v-4.54c0-.68-.56-1.23-1.23-1.23l-9.92-.02c-.62,0-1.26,.08-1.99,.26-.15,.04-.33,.08-.54,.05l-12.47-.29Z"/></g><g><path class="d" d="M67.37,228.26l10.83,.27,15.14-.27h7.8c1.04,0,1.88-.84,1.88-1.88v-10.65c0-1.04-1.91-1.58-2.95-1.58l-17.56-.3h-15.14c-1.04,0-1.88,.84-1.88,1.88l.31,4.3-.31,6.34c0,1.05,.84,1.89,1.88,1.89Z"/><path class="e" d="M78.21,229.18l-10.85-.27c-1.4,0-2.51-1.12-2.52-2.54l.31-6.38-.31-4.22c0-1.44,1.13-2.58,2.53-2.58h15.14l17.57,.3c1.25,0,3.59,.65,3.59,2.23v10.65c0,1.4-1.14,2.53-2.53,2.53h-7.8l-15.13,.27Zm4.29-14.68h-15.13c-.68,0-1.23,.55-1.23,1.23l.31,4.25-.31,6.42c0,.66,.55,1.21,1.23,1.21h.02l10.83,.27,15.11-.27h7.81c.68,0,1.23-.55,1.23-1.23v-10.65c0-.41-1.29-.93-2.3-.93l-17.57-.3Z"/></g><g><path class="b" d="M69.91,75.54c-2.16-1.31-3.69-4.5-4.76-7.28-.72-1.87-1.37-3.02-1.37-5.25,0-3.1,1.03-5.5,2.34-7.8,1.03-1.81,2.15-3.73,3.73-4.69"/><path class="e" d="M69.57,76.1c-1.87-1.14-3.47-3.55-5.03-7.6-.12-.31-.24-.61-.35-.89-.57-1.4-1.06-2.62-1.06-4.6,0-3.41,1.23-6.02,2.43-8.12,.98-1.72,2.19-3.85,3.96-4.92l.68,1.12c-1.48,.9-2.6,2.87-3.5,4.45-1.17,2.06-2.25,4.38-2.25,7.48,0,1.73,.4,2.72,.96,4.11,.12,.29,.24,.59,.36,.91,1.43,3.72,2.9,5.99,4.49,6.96l-.68,1.12Z"/></g><g><path class="b" d="M142.54,75.5c.8-.49,1.9-2.27,2.58-3,2.35-2.53,3.49-5.2,3.49-9.5,0-1.58-.2-3.1-.58-4.52-.95-3.59-3-6.51-5.62-8.06"/><path class="e" d="M142.88,76.06l-.68-1.11c.41-.25,1.04-1.09,1.55-1.77,.32-.43,.63-.84,.9-1.12,2.35-2.54,3.32-5.16,3.32-9.06,0-1.5-.19-2.97-.56-4.35-.9-3.41-2.84-6.2-5.32-7.67l.66-1.12c2.77,1.64,4.93,4.72,5.92,8.46,.4,1.49,.6,3.07,.6,4.69,0,4.26-1.06,7.14-3.66,9.94-.22,.23-.5,.62-.81,1.02-.63,.84-1.29,1.71-1.91,2.09Z"/></g><g><path class="c" d="M163.53,166.59c-.02-.13-.02-.26,0-.4,.03-.16,.11-.22,.21-.24,.42-3.25,.73-6.51,.92-9.78,.3-4.98,1-10.76,.69-15.78-.24-3.74-1.4-6.61-2.06-10.19-.1-.1-.16-.24-.06-.31-.35-1.83-.74-3.66-1.19-5.47-.17-.11-.28-.35-.11-.43-.2-.81-.41-1.61-.63-2.41l9.9-1.82c1.65,5.93,2.58,12.03,3.22,18.17,.09,.82,.17,1.64,.25,2.47,.4,4.24,.77,8.68,.78,13.1,0,4.11-.3,8.21-1.19,12.13,.11,.71,.2,1.42,.05,2.08l-10.79-1.12Z"/><path class="e" d="M174.83,168.42l-11.87-1.23-.08-.5c-.04-.22-.03-.43,.02-.64,.04-.19,.12-.35,.24-.48,.4-3.18,.7-6.35,.88-9.44,.08-1.31,.18-2.68,.29-4.07,.31-3.92,.62-7.98,.4-11.63-.15-2.28-.64-4.22-1.17-6.27-.3-1.17-.61-2.39-.86-3.69-.11-.17-.17-.37-.15-.56v-.15c-.34-1.82-.7-3.46-1.08-5-.18-.2-.28-.46-.26-.71,0-.06,.02-.13,.04-.19-.18-.71-.36-1.42-.56-2.12l-.19-.69,11.19-2.06,.16,.58c1.46,5.23,2.49,11.04,3.24,18.28,.09,.82,.17,1.64,.25,2.48,.37,3.96,.77,8.56,.78,13.16,.01,4.59-.37,8.56-1.18,12.15,.11,.72,.19,1.47,.02,2.2l-.13,.56Zm-10.43-2.4l9.35,.97c0-.4-.05-.83-.12-1.26l-.02-.12,.03-.12c.8-3.53,1.19-7.45,1.17-11.98-.01-4.54-.41-9.11-.78-13.04-.08-.83-.16-1.64-.25-2.46-.72-6.9-1.69-12.48-3.04-17.49l-8.61,1.58c.15,.58,.3,1.16,.45,1.74l.11,.43c.42,1.69,.81,3.49,1.2,5.5l.06,.31v.02l.02,.08c.24,1.28,.55,2.48,.85,3.65,.52,2.02,1.05,4.11,1.2,6.51,.23,3.75-.09,7.85-.4,11.82-.11,1.38-.21,2.74-.29,4.04-.19,3.21-.5,6.51-.92,9.81Z"/></g><g><path class="c" d="M48.88,166.59c.02-.13,.02-.26,0-.4-.03-.16-.11-.22-.21-.24-.42-3.25-.73-6.51-.92-9.78-.3-4.98-1-10.76-.69-15.78,.24-3.74,1.4-6.61,2.06-10.19,.1-.1,.16-.24,.06-.31,.35-1.83,.74-3.66,1.19-5.47,.17-.11,.28-.35,.11-.43,.2-.81,.41-1.61,.63-2.41l-9.9-1.82c-1.65,5.93-2.58,12.03-3.22,18.17-.09,.82-.17,1.64-.25,2.47-.4,4.24-.77,8.68-.78,13.1,0,4.11,.3,8.21,1.19,12.13-.11,.71-.2,1.42-.05,2.08l10.79-1.12Z"/><path class="e" d="M37.58,168.42l-.13-.56c-.17-.73-.09-1.48,.02-2.2-.8-3.59-1.19-7.57-1.18-12.16,.01-4.59,.41-9.2,.78-13.16,.08-.83,.16-1.66,.25-2.48,.75-7.23,1.78-13.04,3.24-18.27l.16-.58,11.19,2.06-.19,.69c-.19,.71-.38,1.41-.56,2.12,.02,.06,.03,.12,.04,.19,.02,.25-.08,.5-.26,.71-.38,1.56-.74,3.22-1.1,5.04l.02,.11c.02,.19-.04,.38-.15,.56-.25,1.3-.56,2.51-.86,3.69-.52,2.05-1.02,3.99-1.17,6.27-.23,3.66,.09,7.72,.4,11.64,.11,1.39,.21,2.75,.29,4.06,.18,3.1,.48,6.27,.88,9.44,.12,.13,.2,.3,.24,.49,.04,.19,.05,.4,.01,.62l-.08,.5-11.87,1.23Zm4.09-47.91c-1.35,5.01-2.32,10.59-3.04,17.49-.09,.82-.17,1.64-.25,2.47-.37,3.93-.77,8.5-.78,13.04-.01,4.54,.37,8.46,1.17,11.98l.03,.12-.02,.12c-.07,.44-.13,.87-.12,1.26l9.35-.97c-.43-3.29-.74-6.6-.92-9.82-.08-1.3-.18-2.65-.29-4.04-.31-3.97-.63-8.07-.4-11.82,.15-2.4,.69-4.49,1.2-6.51,.31-1.2,.62-2.44,.87-3.76l.06-.31c.38-2,.77-3.8,1.2-5.5l.11-.43c.14-.58,.29-1.16,.45-1.74l-8.61-1.58Z"/></g><g><path class="d" d="M142.18,78.71c0,5.65-4.54,10.26-10.19,10.26h-51.59c-4.24,0-7.87-2.58-9.42-6.25-.52-1.22-.8-2.57-.8-3.98v-21.25l-.12-11.43c0-5.65,4.79-11.42,10.44-11.42l18.28,.33,21.99-.49c.4,0,.8,.02,1.2,.05l7.9,.71c.38,.03,.77,.05,1.16,.06,4.46,.18,9.52,2.38,10.76,6.37,.3,.96,.46,1.97,.46,3.03v14.07l-.07,19.94Z"/><path class="e" d="M131.99,89.62h-51.59c-4.38,0-8.32-2.61-10.02-6.65-.56-1.32-.85-2.75-.85-4.23v-21.25l-.12-11.42c0-6.33,5.29-12.08,11.09-12.08l18.29,.33,21.96-.49h0c.43,0,.84,.02,1.26,.05l7.91,.71c.36,.03,.74,.05,1.12,.06,4.51,.18,9.99,2.4,11.37,6.83,.33,1.04,.49,2.12,.49,3.22v14.07l-.07,19.94c0,6.02-4.86,10.91-10.84,10.91Zm-51.5-54.33c-5.02,0-9.78,5.23-9.78,10.77l.12,11.42v21.26c0,1.31,.25,2.56,.75,3.72,1.5,3.56,4.96,5.85,8.82,5.85h51.59c5.26,0,9.54-4.31,9.54-9.61h0l.07-34.01c0-.97-.15-1.92-.43-2.84-1.14-3.66-5.97-5.74-10.16-5.91-.39,0-.79-.03-1.18-.06l-7.91-.71c-.37-.03-.76-.05-1.14-.05l-21.98,.49-18.31-.33Z"/></g><g><path class="c" d="M93.87,56.51c0,1.65-.21,3.39-1.27,4.49-1.12,1.18-2.52,1.38-4.28,1.38s-3.43-.15-4.55-1.27-1.81-2.66-1.81-4.36c0-1.49,.58-2.44,1.46-3.51,1.13-1.37,2.79-2.66,4.71-2.66,.85,0,1.66,.17,2.4,.48,2.22,.95,3.34,2.9,3.34,5.45Z"/><path class="e" d="M88.32,63.03c-1.84,0-3.73-.18-5.01-1.46-1.29-1.29-2-3-2-4.82,0-1.64,.62-2.72,1.61-3.92,.89-1.08,2.76-2.9,5.21-2.9,.92,0,1.81,.18,2.65,.53,2.41,1.03,3.74,3.18,3.74,6.05,0,1.47-.15,3.59-1.45,4.94-1.38,1.46-3.18,1.58-4.75,1.58Zm-.19-11.8c-1.92,0-3.46,1.52-4.21,2.42-.85,1.03-1.31,1.83-1.31,3.09,0,1.47,.57,2.85,1.62,3.9,.95,.95,2.53,1.08,4.09,1.08,1.7,0,2.87-.19,3.81-1.18,.98-1.02,1.09-2.79,1.09-4.04,0-2.35-1.02-4.03-2.94-4.85-.67-.28-1.4-.43-2.14-.43Z"/></g><g><path class="c" d="M130.42,56.75c0,2.13-1.08,4.01-2.72,5.12-.98,.67-3.17,.84-4.45,.84-2.49,0-3.63-1.27-4.61-3.39-.36-.78-.56-1.65-.56-2.57,0-1.28,.39-2.46,1.05-3.45,1.11-1.64,2.31-2.67,4.44-2.67,1.28,0,3.14,.34,4.12,1,1.65,1.12,2.73,3,2.73,5.12Z"/><path class="e" d="M123.25,63.36c-3.04,0-4.3-1.81-5.2-3.77-.41-.89-.62-1.85-.62-2.84,0-1.36,.4-2.67,1.16-3.81,1.04-1.54,2.37-2.96,4.98-2.96,1.36,0,3.35,.35,4.48,1.11,1.89,1.28,3.02,3.4,3.02,5.66s-1.12,4.39-3.01,5.66c-1.29,.88-4.01,.95-4.82,.95Zm.32-12.08c-1.9,0-2.9,.91-3.9,2.38-.61,.92-.94,1.99-.94,3.08,0,.8,.17,1.58,.5,2.3,.88,1.91,1.82,3.01,4.02,3.01,1.5,0,3.35-.22,4.08-.73,1.53-1.03,2.44-2.75,2.44-4.58s-.91-3.54-2.44-4.58c-.82-.55-2.56-.89-3.75-.89Z"/></g><g><path class="b" d="M150.99,115.59c1.65,2.45,3.25,3.27,5.95,4.52,2.08,.96,4.33,1.68,6.78,1.68,3.19,0,6.22-1.1,8.73-2.68,2.69-1.7,4.85-4.16,6.17-7.07,.93-2.04,1.44-4.31,1.44-6.7,0-1.8-.29-3.53-.83-5.14-1.22-3.66-3.8-6.77-7.02-8.76-2.48-1.53-5.3-2.38-8.43-2.38-2.74,0-4,.21-6.26,1.4-3.14,1.66-7,4.78-8.51,8.02l-2.1,10.42,4.08,6.69Z"/><path class="e" d="M163.72,122.44c-2.24,0-4.48-.55-7.05-1.74-2.72-1.26-4.48-2.16-6.22-4.75l-.02-.02-4.21-6.91,2.2-10.82c1.57-3.36,5.55-6.6,8.8-8.32,2.4-1.26,3.74-1.48,6.57-1.48,3.16,0,6.11,.83,8.77,2.48,3.46,2.14,6.05,5.37,7.3,9.11,.57,1.71,.86,3.51,.86,5.35,0,2.44-.5,4.79-1.5,6.97-1.37,3.02-3.59,5.57-6.42,7.35-2.02,1.27-5.23,2.78-9.08,2.78Zm-12.18-7.21c1.55,2.3,3.01,3.05,5.67,4.28,2.39,1.1,4.46,1.62,6.5,1.62,3.54,0,6.51-1.4,8.38-2.58,2.61-1.65,4.66-4,5.92-6.79,.92-2.01,1.38-4.17,1.38-6.43,0-1.7-.27-3.36-.8-4.93-1.15-3.45-3.54-6.43-6.74-8.41-2.46-1.51-5.18-2.28-8.09-2.28-2.62,0-3.79,.18-5.96,1.32-3.03,1.6-6.73,4.58-8.19,7.65l-2.03,10.09,3.94,6.46Z"/></g><g><path class="b" d="M65.82,108.9l-2.1-10.42c-1.51-3.24-5.37-6.36-8.51-8.02-2.26-1.19-3.52-1.4-6.26-1.4-3.13,0-5.95,.85-8.43,2.38-3.22,1.99-5.8,5.1-7.02,8.76-.54,1.61-.83,3.34-.83,5.14,0,2.39,.51,4.66,1.44,6.7,1.32,2.91,3.48,5.37,6.17,7.07,2.51,1.58,5.54,2.68,8.73,2.68,2.45,0,4.7-.72,6.78-1.68,2.7-1.25,4.3-2.07,5.95-4.52l4.08-6.69Z"/><path class="e" d="M49.01,122.44c-3.85,0-7.06-1.51-9.08-2.78-2.83-1.79-5.05-4.33-6.42-7.35-.99-2.18-1.5-4.53-1.5-6.97,0-1.84,.29-3.64,.86-5.35,1.25-3.73,3.84-6.97,7.3-9.11,2.67-1.64,5.62-2.48,8.77-2.48,2.82,0,4.17,.21,6.56,1.48,3.25,1.72,7.23,4.96,8.8,8.32l.05,.15,2.15,10.67-4.21,6.91c-1.76,2.61-3.51,3.51-6.23,4.77-2.57,1.19-4.81,1.74-7.05,1.74Zm-.06-32.73c-2.91,0-5.63,.77-8.09,2.28-3.2,1.98-5.59,4.96-6.74,8.41-.53,1.58-.8,3.24-.8,4.93,0,2.26,.46,4.42,1.38,6.43,1.27,2.79,3.32,5.14,5.92,6.79,1.87,1.18,4.84,2.58,8.38,2.58,2.04,0,4.11-.51,6.51-1.62,2.67-1.23,4.13-1.99,5.68-4.29l3.93-6.45-2.03-10.09c-1.46-3.07-5.16-6.05-8.19-7.65-2.17-1.14-3.33-1.32-5.95-1.32Z"/></g><path class="e" d="M127.49,80.49h-42.6c-.8,0-1.14-1.31-1.14-2.11l-.31-3.13c0-.8,.65-1.45,1.45-1.45l11.26,.33,25.2-.33h6.14c.8,0,.98,1.17,.98,1.97l.47,3.27c0,.8-.65,1.45-1.45,1.45Z"/><g><path class="d" d="M78.42,194.65c-3.74,0-7.19-1.1-9.98-2.97-4.08-2.73-6.72-7.09-6.72-12.01V104.16c0-4.36,3.05-8.35,6.36-11.09,2.97-2.46,5.98-3.88,10.34-3.88l59.19,.29c9.22,0,12.08,4.79,12.08,13.06l1.63,35.9-1.31,40.8c0,4.34-.63,8.04-3.92,10.77-2.98,2.48-8.68,4.24-13.06,4.24l-18.12,.4h-.35l-5.69-.37c-.21,0-.43-.02-.64-.02l-22.3,.39h-7.51Z"/><path class="e" d="M114.56,195.3l-5.73-.37c-.19,0-.4-.02-.6-.02l-22.29,.39h-7.52c-3.76,0-7.34-1.07-10.34-3.08-4.45-2.98-7.01-7.55-7.01-12.55V104.16c0-5.34,4.13-9.55,6.6-11.59,3.41-2.82,6.63-4.03,10.76-4.03l59.19,.29c8.8,0,12.73,4.23,12.73,13.71l1.63,35.87-1.31,40.85c0,4.04-.5,8.22-4.16,11.25-3.01,2.5-8.8,4.39-13.48,4.39l-18.47,.4Zm-6.34-1.7c.23,0,.46,0,.68,.02l5.7,.37h.31l18.11-.4c4.35,0,9.9-1.8,12.66-4.09,3.06-2.54,3.69-5.94,3.69-10.27l1.31-40.82-1.63-35.85c0-8.84-3.31-12.44-11.43-12.44l-59.19-.29c-3.85,0-6.72,1.08-9.92,3.73-1.84,1.52-6.12,5.61-6.12,10.59v75.51c0,4.55,2.34,8.73,6.43,11.47,2.79,1.87,6.12,2.86,9.62,2.86h7.51l22.29-.39h0Z"/></g><g><path class="b" d="M66.78,131.26l-.31,27.49,.64,14.94c0,3.59,.69,7.46,2.88,10,2.73,3.16,6.8,5.16,11.35,5.16h5.64l32.1-.78c.6,0,1.2,0,1.8,.04l9.92,.73c2.19,0,4.28-.47,6.15-1.3,5.14-2.29,8.72-7.37,8.72-13.28v-43.53h-36.2l-29.61,.82c-.45,0-.9,0-1.35,0l-11.73-.29Z"/><path class="e" d="M81.34,189.5c-4.57,0-8.89-1.96-11.84-5.38-2.51-2.91-3.04-7.28-3.04-10.43l-.64-14.91,.32-28.19,12.39,.31c.44,.01,.88,.01,1.32,0l29.61-.82h36.87v44.18c0,5.96-3.57,11.41-9.11,13.88-2.03,.9-4.19,1.36-6.42,1.36l-9.97-.73c-.55-.04-1.13-.05-1.74-.04l-32.1,.78h-5.66Zm-13.91-57.57l-.3,26.83,.64,14.9c0,2.96,.47,6.99,2.72,9.6,2.71,3.13,6.67,4.93,10.86,4.93h5.64l32.08-.78c.66-.01,1.27,0,1.86,.04l9.92,.73c2,0,3.98-.42,5.84-1.25,5.06-2.25,8.33-7.23,8.33-12.68v-42.88h-35.55l-29.59,.82c-.46,.01-.92,.01-1.38,0l-11.07-.27Z"/></g><g><path class="b" d="M153.11,184.66s-.03,0-.04,0c.14,.4,.32,.82,.7,1.01,.27,.14,.58,.2,.89,.28,1.67,.32,2.82,.52,4.5,.8,.34-.09,.82-.4,.68-.78h-.02c-1.11-1.85-1.57-4.09-1.15-6.38,.35-1.86,2.19-4.96,3.43-6.22,2.06-2.09,4.14-1.69,7.25-1.11,1.87,.35,3.49,1.23,4.75,2.47,2.09,2.06,3.16,5.1,2.58,8.21-.42,2.27-1.65,4.18-3.33,5.51-.05,.08-.1,.15-.16,.23-.14,.18-.27,.3-.15,.49,1.66,.28,2.42,.25,4.07,.52,.03,0,.95,.33,.97,.33,.19,.03,.39,.06,.58,.1,0,0,0,.02-.02,.03,.3,.07,.59,.12,.87,.1,.03,0,.06,0,.09,0,.08-.1,.16-.19,.24-.29,0,0-.02,0-.03,0,1.36-1.81,2.35-3.95,2.79-6.33,.69-3.69-.81-7.57-2.56-10.58-2.13-3.69-5.02-6.2-9.54-7.04-.81-.15-1.62-.23-2.42-.25-4.73-.11-9.14,2-12.03,5.52-1.57,1.91-2.69,4.23-3.18,6.83-.41,2.25-.3,4.48,.24,6.56Z"/><path class="e" d="M179.82,191.01l-.35-.12c-.34,.02-.69-.05-.98-.12l-.47-.11s-.06,0-.13-.03l-.6-.14,.05-.05c-.15-.05-.3-.1-.37-.13-.77-.12-1.34-.18-1.91-.24-.62-.06-1.25-.13-2.12-.27l-.29-.05-.16-.25c-.36-.56,.02-1.04,.15-1.19,.08-.1,.12-.16,.16-.22l.15-.16c1.62-1.28,2.72-3.1,3.09-5.12,.52-2.78-.38-5.63-2.4-7.63-1.21-1.19-2.73-1.98-4.41-2.29-3.05-.57-4.86-.91-6.67,.93-1.17,1.19-2.94,4.2-3.25,5.88-.35,1.93-.04,3.9,.89,5.61h.08l.18,.43c.1,.28,.08,.58-.06,.85-.22,.43-.7,.69-1.07,.79l-.14,.04-.14-.02c-1.69-.28-2.84-.48-4.52-.8l-.2-.05c-.28-.07-.58-.14-.87-.29-.65-.33-.9-1.03-1.02-1.37l-.3-.87h.14c-.41-1.99-.43-4-.06-6.02,.5-2.62,1.64-5.09,3.32-7.13,3.05-3.72,7.71-5.87,12.55-5.76,.86,.02,1.71,.11,2.52,.26,4.39,.82,7.56,3.15,9.99,7.36,1.62,2.79,3.4,6.97,2.64,11.03-.37,1.99-1.1,3.86-2.19,5.57h.15l-1.38,1.71Zm-1.6-1.64c.23,.04,.4,.06,.57,.1l.48,.1v-.02c1.38-1.82,2.27-3.85,2.68-6.06,.69-3.67-.97-7.54-2.48-10.13-2.22-3.85-5.11-5.99-9.09-6.73-.75-.14-1.53-.22-2.32-.24-4.41-.09-8.71,1.87-11.51,5.28-1.54,1.87-2.59,4.13-3.04,6.54-.38,2.1-.31,4.21,.23,6.28l.06,.24c.07,.16,.16,.29,.26,.34,.16,.08,.37,.13,.59,.19l.17,.04c1.57,.3,2.69,.5,4.28,.76,0,0,.01,0,.02-.01-1.12-1.99-1.51-4.33-1.09-6.6,.37-1.98,2.28-5.21,3.61-6.56,2.29-2.33,4.6-1.9,7.79-1.3,1.98,.37,3.74,1.29,5.13,2.65,2.33,2.3,3.36,5.58,2.76,8.8-.4,2.18-1.54,4.15-3.21,5.61,.38,.05,.72,.08,1.08,.12,.59,.06,1.19,.12,1.99,.25,.09,0,.18,.04,.71,.22,.15,.05,.28,.1,.35,.12Z"/></g><g><path class="b" d="M59.36,184.66s.03,0,.04,0c-.14,.4-.32,.82-.7,1.01-.27,.14-.58,.2-.89,.28-1.67,.32-2.09-.13-3.77,.15-.34-.09-1.55,.26-1.41-.13h.02c1.11-1.85,1.57-4.09,1.15-6.38-.64-3.43-1.54-5.88-4.65-6.87-1.39-.45-4.48-.74-6.02-.46-1.24,.23-2.38,.7-3.37,1.36-2.98,1.97-4.65,5.59-3.96,9.32,.42,2.27,.9,2.82,2.58,4.14,.05,.08,.85,1.52,.91,1.6,.14,.18,.27,.3,.15,.49-1.66,.28-3.32,.57-4.97,.84-.03,0-.05,0-.07,0-.19,.03-.39,.06-.58,.1,0,0,0,.02,.02,.03-.3,.07-.59,.12-.87,.1-.03,0-.06,0-.09,0-.08-.1-.16-.19-.24-.29,0,0,.02,0,.03,0-1.36-1.81-2.35-3.95-2.79-6.33-.48-2.57,.25-4.67,1.01-6.99,.96-2.94,2.27-5.97,4.74-7.83,1.81-1.37,3.96-2.35,6.35-2.79,5.13-.95,10.14,.8,13.54,4.26,2.04,2.07,3.51,4.76,4.08,7.84,.41,2.24,.3,4.47-.24,6.55Z"/><path class="e" d="M32.65,191.01l-1.37-1.7h.15c-1.09-1.71-1.82-3.58-2.19-5.57-.5-2.66,.21-4.82,.96-7.1l.07-.21c.89-2.72,2.26-6.11,4.97-8.15,1.96-1.48,4.19-2.46,6.62-2.91,5.17-.96,10.45,.7,14.12,4.44,2.21,2.24,3.68,5.07,4.26,8.18,.37,2.01,.35,4.02-.06,6.01h.14l-.3,.87c-.12,.34-.37,1.05-1.02,1.38-.28,.15-.59,.22-.86,.29l-.16,.04c-.98,.19-1.56,.15-2.13,.11-.49-.04-.96-.07-1.7,.05l-.14,.02-.14-.04s-.24,.02-.38,.04c-.54,.06-1.06,.12-1.37-.28-.16-.21-.2-.48-.11-.74l.16-.43h.1c.93-1.71,1.24-3.68,.89-5.61-.65-3.47-1.51-5.51-4.21-6.37-1.28-.41-4.27-.7-5.71-.44-1.13,.21-2.19,.63-3.12,1.26-2.86,1.89-4.3,5.29-3.68,8.66,.38,2.05,.73,2.48,2.34,3.75l.15,.17s.15,.26,.31,.54c.23,.41,.53,.94,.59,1.04,.14,.17,.52,.64,.16,1.2l-.16,.25-2,.34c-1.09,.19-2.18,.37-3.27,.55l-.59,.13c-.29,.07-.63,.13-.98,.12l-.35,.11Zm12.1-24.6c-.88,0-1.77,.08-2.65,.24-2.24,.41-4.28,1.31-6.08,2.67-2.41,1.81-3.63,4.82-4.51,7.51l-.07,.21c-.73,2.22-1.35,4.13-.92,6.46,.41,2.2,1.31,4.24,2.67,6.06h.01l.48-.09c.18-.04,.36-.07,.54-.1l.16-.02c1.07-.18,2.15-.36,3.23-.54l.9-.15c-.09-.17-.23-.4-.42-.75-.09-.16-.17-.31-.22-.4-1.67-1.32-2.26-2-2.72-4.46-.72-3.89,.95-7.8,4.24-9.98,1.08-.72,2.3-1.21,3.61-1.46,1.67-.31,4.89,0,6.34,.48,3.65,1.16,4.51,4.28,5.09,7.37,.37,2.04,.1,4.12-.77,5.97,.13,0,.25-.01,.37,0,.84-.13,1.4-.09,1.9-.05,.52,.04,.98,.07,1.75-.08l.13-.03c.22-.05,.43-.11,.58-.18,.11-.05,.19-.19,.27-.35l.06-.24c.54-2.06,.61-4.17,.23-6.27-.53-2.85-1.88-5.44-3.9-7.5-2.74-2.79-6.46-4.32-10.3-4.32Z"/></g><g><path class="c" d="M132.95,123.36l-14.45-.57c-.32-.01-.64-.02-.96-.01l-29.51,.58-6.89-.26c-1.14,0-3.77-.66-3.77-1.8v-11.14l.51-7.63c0-1.14,.41-2.85,1.55-2.85h53.53c1.14,0,2.37-.25,2.37,.89l-.31,9.24v11.49c-.01,1.14-.93,2.06-2.07,2.06Z"/><path class="e" d="M132.95,124.01h-.03l-14.45-.57c-.3,0-.61-.02-.92-.01l-29.52,.58-6.93-.26h0c-.95,0-4.4-.59-4.4-2.45v-11.14l.51-7.67c0-1.64,.69-3.46,2.2-3.46h53.53c.17,0,.34,0,.51-.01,.77-.02,1.57-.05,2.09,.45,.28,.27,.42,.64,.42,1.1l-.31,9.26v11.47c-.01,1.5-1.23,2.71-2.72,2.71Zm-53.52-23.68c-.53,0-.9,1.16-.9,2.2l-.51,7.67v11.1c0,.42,1.8,1.15,3.12,1.15l6.91,.26,29.47-.58c.32-.01,.66,0,.99,.01l14.44,.57c.77,0,1.4-.64,1.41-1.41v-11.48l.31-9.26c0-.1-.03-.14-.03-.14-.11-.12-.81-.1-1.14-.08-.18,0-.37,.01-.55,.01h-53.53Z"/></g></svg>